<svg width="35" height="35" viewBox="0 0 35 35" fill="none" xmlns="http://www.w3.org/2000/svg">
<path fill-rule="evenodd" clip-rule="evenodd" d="M8.75 3.41675C7.58968 3.41675 6.47688 3.87768 5.65641 4.69816C4.83594 5.51863 4.375 6.63143 4.375 7.79175V28.2084C4.375 29.3687 4.83594 30.4815 5.65641 31.302C6.47688 32.1225 7.58968 32.5834 8.75 32.5834H17.5C18.6603 32.5834 19.7731 32.1225 20.5936 31.302C21.4141 30.4815 21.875 29.3687 21.875 28.2084V7.79175C21.875 6.63143 21.4141 5.51863 20.5936 4.69816C19.7731 3.87768 18.6603 3.41675 17.5 3.41675H8.75ZM23.7606 11.1357C24.0341 10.8623 24.405 10.7087 24.7917 10.7087C25.1784 10.7087 25.5492 10.8623 25.8227 11.1357L31.656 16.969C31.9294 17.2425 32.083 17.6134 32.083 18.0001C32.083 18.3868 31.9294 18.7576 31.656 19.0311L25.8227 24.8645C25.5477 25.1301 25.1793 25.2771 24.7969 25.2738C24.4145 25.2705 24.0488 25.1171 23.7784 24.8467C23.508 24.5763 23.3546 24.2105 23.3513 23.8282C23.348 23.4458 23.495 23.0774 23.7606 22.8024L27.1046 19.4584H14.5833C14.1966 19.4584 13.8256 19.3048 13.5521 19.0313C13.2786 18.7578 13.125 18.3869 13.125 18.0001C13.125 17.6133 13.2786 17.2424 13.5521 16.9689C13.8256 16.6954 14.1966 16.5417 14.5833 16.5417H27.1046L23.7606 13.1978C23.4872 12.9243 23.3336 12.5534 23.3336 12.1667C23.3336 11.7801 23.4872 11.4092 23.7606 11.1357Z" fill="#EC7023"/>
</svg>
