<svg width="35" height="35" viewBox="0 0 35 35" fill="none" xmlns="http://www.w3.org/2000/svg">
<path fill-rule="evenodd" clip-rule="evenodd" d="M12.0312 2.1875C11.8595 2.18749 11.6902 2.22792 11.537 2.30552C11.3838 2.38312 11.251 2.4957 11.1494 2.63415C11.0478 2.77261 10.9802 2.93304 10.9521 3.10247C10.9241 3.2719 10.9363 3.44555 10.9878 3.60938L11.2284 4.375H7.65625C7.36617 4.375 7.08797 4.49024 6.88285 4.69535C6.67773 4.90047 6.5625 5.17867 6.5625 5.46875V31.7188C6.5625 32.0088 6.67773 32.287 6.88285 32.4922C7.08797 32.6973 7.36617 32.8125 7.65625 32.8125H27.3438C27.6338 32.8125 27.912 32.6973 28.1171 32.4922C28.3223 32.287 28.4375 32.0088 28.4375 31.7188V5.46875C28.4375 5.17867 28.3223 4.90047 28.1171 4.69535C27.912 4.49024 27.6338 4.375 27.3438 4.375H23.7738L24.0144 3.60938C24.066 3.44538 24.0781 3.27152 24.05 3.10193C24.0218 2.93234 23.954 2.77177 23.8521 2.63327C23.7503 2.49477 23.6172 2.38223 23.4637 2.30478C23.3103 2.22733 23.1407 2.18715 22.9688 2.1875H12.0312ZM13.5187 4.375H21.4812L20.7966 6.5625H14.2034L13.5187 4.375ZM24.0625 15.3125H10.9375V13.125H24.0625V15.3125ZM24.0625 20.7813H10.9375V18.5938H24.0625V20.7813ZM10.9375 26.25H19.6875V24.0625H10.9375V26.25Z" fill="#EC7023"/>
</svg>
