<svg width="35" height="35" viewBox="0 0 35 35" fill="none" xmlns="http://www.w3.org/2000/svg">
<path d="M20.7812 24.7216V5.91206C20.004 6.29123 19.2413 6.88914 18.375 7.60664L18.1402 7.80206C17.0523 8.70623 15.7719 9.77373 14.2188 10.2841V29.0952C14.9975 28.7146 15.7587 28.1166 16.625 27.4006L16.8598 27.2037C17.9477 26.2996 19.2281 25.2335 20.7812 24.7216ZM26.7487 4.38373C27.1965 4.5631 27.6033 4.72644 27.9913 4.85914L28.0452 4.8781C28.7204 5.11144 29.314 5.3156 29.7835 5.5431C30.2954 5.78956 30.7577 6.10456 31.1106 6.6106C31.4606 7.11227 31.5977 7.65769 31.6604 8.22498C31.7188 8.75435 31.7188 9.39748 31.7188 10.1369V22.5385C31.7188 23.5973 31.7188 24.4839 31.64 25.1825C31.5598 25.9044 31.379 26.6131 30.8729 27.1877C30.5693 27.5293 30.1991 27.8052 29.785 27.9985C29.0048 28.3587 28.2085 28.3675 27.4896 28.2435C26.7852 28.1225 26.0896 27.86 25.4771 27.6062C25.2729 27.5216 25.0775 27.4395 24.8908 27.3598C24.4825 27.1862 24.1092 27.0273 23.7256 26.8931C23.1802 26.6991 22.7529 26.6102 22.4102 26.6219C22.1962 26.6276 21.9834 26.657 21.7758 26.7094C20.5115 27.02 19.444 27.9037 18.1242 28.9989L18.0192 29.085C16.7446 30.1408 15.2002 31.4008 13.2096 31.6764C12.5854 31.7639 11.7877 31.7085 10.9827 31.586C10.0918 31.4447 9.21216 31.24 8.35042 30.9735C7.47311 30.7104 6.62255 30.3652 5.81 29.9425C5.07354 29.5502 4.34 29.0427 3.88938 28.3966C3.53938 27.8935 3.40229 27.3481 3.33958 26.7808C3.28125 26.2514 3.28125 25.6098 3.28125 24.8689V12.4673C3.28125 11.4085 3.28125 10.5219 3.36 9.82331C3.44021 9.10144 3.62104 8.39269 4.12708 7.8181C4.43042 7.47539 4.79938 7.19831 5.215 7.00727C5.99521 6.64706 6.79146 6.63831 7.51042 6.76227C8.21479 6.88477 8.91042 7.14581 9.52292 7.39956C9.72708 7.48414 9.9225 7.5663 10.1092 7.64602C10.5175 7.82102 10.8908 7.97852 11.2744 8.11269C11.8212 8.30664 12.2471 8.39706 12.5898 8.38394C12.8037 8.37616 13.0151 8.34699 13.2242 8.29644C14.4885 7.98581 15.556 7.10206 16.8758 6.00685L16.9808 5.92081C18.2554 4.86644 19.7998 3.60644 21.7904 3.32935C22.9833 3.16456 24.1631 3.44894 25.1825 3.79164C25.6987 3.96664 26.2063 4.16789 26.6729 4.35456L26.7487 4.38373Z" fill="#EC7023"/>
</svg>
