<svg width="35" height="35" viewBox="0 0 35 35" fill="none" xmlns="http://www.w3.org/2000/svg">
<path d="M5.8335 27.7084V14.5834C5.8335 14.1216 5.93704 13.6841 6.14412 13.2709C6.3512 12.8577 6.63655 12.5174 7.00016 12.2501L15.7502 5.68758C16.2606 5.29869 16.8439 5.10425 17.5002 5.10425C18.1564 5.10425 18.7397 5.29869 19.2502 5.68758L28.0002 12.2501C28.3647 12.5174 28.6506 12.8577 28.8577 13.2709C29.0647 13.6841 29.1678 14.1216 29.1668 14.5834V27.7084C29.1668 28.5105 28.881 29.1974 28.3093 29.769C27.7377 30.3407 27.0513 30.6261 26.2502 30.6251H21.8752C21.462 30.6251 21.1159 30.4851 20.8368 30.2051C20.5578 29.9251 20.4178 29.579 20.4168 29.1667V21.8751C20.4168 21.4619 20.2768 21.1158 19.9968 20.8367C19.7168 20.5577 19.3707 20.4177 18.9585 20.4167H16.0418C15.6286 20.4167 15.2825 20.5567 15.0035 20.8367C14.7245 21.1167 14.5845 21.4629 14.5835 21.8751V29.1667C14.5835 29.5799 14.4435 29.9265 14.1635 30.2065C13.8835 30.4865 13.5374 30.6261 13.1252 30.6251H8.75016C7.94808 30.6251 7.26169 30.3397 6.691 29.769C6.1203 29.1983 5.83447 28.5115 5.8335 27.7084Z" fill="#EC7023"/>
</svg>
